<svg xmlns="http://www.w3.org/2000/svg" version="1.1" xmlns:xlink="http://www.w3.org/1999/xlink" xmlns:svgjs="http://svgjs.dev/svgjs" width="2000" height="590" viewBox="0 0 2000 590"><g transform="matrix(1,0,0,1,-1.2121212121212466,-0.9387245233398858)"><svg viewBox="0 0 396 117" data-background-color="#ffffff" preserveAspectRatio="xMidYMid meet" height="590" width="2000" xmlns="http://www.w3.org/2000/svg" xmlns:xlink="http://www.w3.org/1999/xlink"><g id="tight-bounds" transform="matrix(1,0,0,1,0.2400000000000091,0.186153846153843)"><svg viewBox="0 0 395.52 116.62769230769231" height="116.62769230769231" width="395.52"><g><svg viewBox="0 0 395.52 116.62769230769231" height="116.62769230769231" width="395.52"><g><svg viewBox="0 0 395.52 116.62769230769231" height="116.62769230769231" width="395.52"><g><svg viewBox="0 0 395.52 116.62769230769231" height="116.62769230769231" width="395.52"><g id="textblocktransform"><svg viewBox="0 0 395.52 116.62769230769231" height="116.62769230769231" width="395.52" id="textblock"><g><svg viewBox="0 0 395.52 116.62769230769231" height="116.62769230769231" width="395.52"><g><svg viewBox="0 0 395.52 116.62769230769231" height="116.62769230769231" width="395.52"><g transform="matrix(1,0,0,1,0,0)"><svg width="395.52" viewBox="1.9 -36.35 140.39 41.4" height="116.62769230769231" data-palette-color="url(#fb79ee85-698c-417b-917c-c73a5ba46a50)"></svg></g></svg></g></svg></g></svg></g></svg></g></svg></g></svg></g><defs></defs><mask id="e02b2d9f-6700-4bb3-92a8-e744e772cd43"><g id="SvgjsG4524"><svg viewBox="0 0 395.52 116.62769230769231" height="116.62769230769231" width="395.52"><g><svg viewBox="0 0 395.52 116.62769230769231" height="116.62769230769231" width="395.52"><g><svg viewBox="0 0 395.52 116.62769230769231" height="116.62769230769231" width="395.52"><g><svg viewBox="0 0 395.52 116.62769230769231" height="116.62769230769231" width="395.52"><g id="SvgjsG4523"><svg viewBox="0 0 395.52 116.62769230769231" height="116.62769230769231" width="395.52" id="SvgjsSvg4522"><g><svg viewBox="0 0 395.52 116.62769230769231" height="116.62769230769231" width="395.52"><g><svg viewBox="0 0 395.52 116.62769230769231" height="116.62769230769231" width="395.52"><g transform="matrix(1,0,0,1,0,0)"><svg width="395.52" viewBox="1.9 -36.35 140.39 41.4" height="116.62769230769231" data-palette-color="url(#fb79ee85-698c-417b-917c-c73a5ba46a50)"><path d="M24.15-27.95L24.15-24.85 6.25-14.9 24.15-4.95 24.15-1.85 1.9-13.65 1.9-16.15 24.15-27.95ZM48.8-12L37.2-12 33.95-2.5 37.8-1.5Q37.95-0.55 37.55 0.25L37.55 0.25Q36.2 0.15 34.52 0.08 32.85 0 31.45 0L31.45 0Q30.05 0 29.15 0.08 28.25 0.15 26.85 0.25L26.85 0.25Q26.7-0.7 26.95-1.5L26.95-1.5Q28.05-1.65 29-1.9 29.95-2.15 30.8-2.5L30.8-2.5 42.65-35.95Q43.05-36.2 43.62-36.27 44.2-36.35 44.6-36.35L44.6-36.35 58.15-2.5 62-1.5Q62.15-0.55 61.75 0.25L61.75 0.25Q60.4 0.15 58.72 0.08 57.05 0 55.65 0L55.65 0Q54.7 0 53.35 0.05 52 0.1 50.67 0.15 49.35 0.2 48.4 0.25L48.4 0.25Q48.25-0.7 48.5-1.5L48.5-1.5Q49.65-1.65 50.62-1.9 51.6-2.15 52.5-2.5L52.5-2.5 48.8-12ZM42.75-29L42.65-29Q42.15-27.2 41.62-25.35 41.1-23.5 40.45-21.6L40.45-21.6 38.1-14.75 47.7-14.75 44.95-21.85Q44.1-23.9 43.57-25.6 43.05-27.3 42.75-29L42.75-29ZM72.34-15.75L72.34-2.5 76.2-1.5Q76.34-0.55 75.95 0.25L75.95 0.25Q74.59 0.15 72.92 0.08 71.25 0 69.84 0L69.84 0Q68.45 0 66.42 0.08 64.4 0.15 63 0.25L63 0.25Q62.85-0.7 63.1-1.5L63.1-1.5Q64.15-1.6 65.15-1.85 66.15-2.1 67.09-2.5L67.09-2.5 67.09-32.5 63.25-33.5Q63.1-34.45 63.5-35.25L63.5-35.25Q64.84-35.2 66.92-35.08 69-34.95 70.59-35L70.59-35 75.3-35.3Q81.75-35.65 85.52-33.05 89.3-30.45 89.3-25.6L89.3-25.6Q89.3-22.2 87.55-20.08 85.8-17.95 82.45-16.8L82.45-16.8 82.45-16.6Q82.8-16.4 83.07-15.9 83.34-15.4 83.55-15L83.55-15Q85.55-10.6 86.77-7.9 88-5.2 88.82-3.85 89.65-2.5 90.52-2.02 91.4-1.55 92.7-1.55L92.7-1.55 93.3-1.6Q93.55-1.2 93.59-0.8 93.65-0.4 93.59 0L93.59 0Q93.34 0.35 92.65 0.5 91.95 0.65 91.27 0.7 90.59 0.75 90.3 0.75L90.3 0.75Q87 0.75 84.84-1.85L84.84-1.85Q83.9-3 83.07-4.85 82.25-6.7 81.15-9.38 80.05-12.05 78.2-15.8L78.2-15.8Q76.55-15.65 74.84-15.65L74.84-15.65Q74.2-15.65 73.57-15.68 72.95-15.7 72.34-15.75L72.34-15.75ZM84.4-25.3L84.4-25.3Q84.4-27.85 83.27-29.55 82.15-31.25 80.25-32.13 78.34-33 76-33L76-33Q75.15-33 74.25-32.85 73.34-32.7 72.34-32.45L72.34-32.45 72.34-18.05Q73.15-17.85 73.9-17.78 74.65-17.7 75.34-17.7L75.34-17.7Q79.7-17.7 82.05-19.75 84.4-21.8 84.4-25.3ZM95.39 5L112.34-35Q113.19-35.2 114.04-35.33 114.89-35.45 115.69-35.35L115.69-35.35 98.79 4.6Q97.09 5.2 95.39 5L95.39 5ZM120.04-24.85L120.04-27.95 142.29-16.15 142.29-13.65 120.04-1.85 120.04-4.95 137.94-14.9 120.04-24.85Z" opacity="1" transform="matrix(1,0,0,1,0,0)" fill="white" class="wordmark-text-0" id="SvgjsPath4521"></path></svg></g></svg></g></svg></g></svg></g></svg></g></svg></g></svg></g><defs><mask></mask></defs></svg><rect width="395.52" height="116.62769230769231" fill="black" stroke="none" visibility="hidden"></rect></g></mask><linearGradient x1="0" x2="1" y1="0.5" y2="0.5" id="fb79ee85-698c-417b-917c-c73a5ba46a50"><stop stop-color="#f00b51" offset="0"></stop><stop stop-color="#730062" offset="1"></stop></linearGradient><rect width="395.52" height="116.62769230769231" fill="url(#fb79ee85-698c-417b-917c-c73a5ba46a50)" mask="url(#e02b2d9f-6700-4bb3-92a8-e744e772cd43)" data-fill-palette-color="primary"></rect></svg><rect width="395.52" height="116.62769230769231" fill="none" stroke="none" visibility="hidden"></rect></g></svg></g></svg>