<svg xmlns="http://www.w3.org/2000/svg" version="1.1" xmlns:xlink="http://www.w3.org/1999/xlink" xmlns:svgjs="http://svgjs.dev/svgjs" width="2000" height="1500" viewBox="0 0 2000 1500"><rect width="2000" height="1500" fill="#001f3f"></rect><g transform="matrix(0.75,0,0,0.75,249.090909090909,400.4486494614915)"><svg viewBox="0 0 396 185" data-background-color="#001f3f" preserveAspectRatio="xMidYMid meet" height="934" width="2000" xmlns="http://www.w3.org/2000/svg" xmlns:xlink="http://www.w3.org/1999/xlink"><g id="tight-bounds" transform="matrix(1,0,0,1,0.2400000000000091,-0.18451127819548674)"><svg viewBox="0 0 395.52 185.36902255639097" height="185.36902255639097" width="395.52"><g><svg viewBox="0 0 395.52 185.36902255639097" height="185.36902255639097" width="395.52"><g><svg viewBox="0 0 395.52 185.36902255639097" height="185.36902255639097" width="395.52"><g id="textblocktransform"><svg viewBox="0 0 395.52 185.36902255639097" height="185.36902255639097" width="395.52" id="textblock"><g><svg viewBox="0 0 395.52 185.36902255639097" height="185.36902255639097" width="395.52"><g transform="matrix(1,0,0,1,0,0)"><svg width="395.52" viewBox="1.75 -40.85 99.74 46.75" height="185.36902255639097" data-palette-color="#ffdc00"><g class="wordmark-text-0" data-fill-palette-color="primary" id="text-0"><path d="M1.75-18.7L23.15-27.95 23.15-23.75 5.6-16.3 23.15-8.8 23.15-4.6 1.75-13.9 1.75-18.7ZM24.95 0L40.4-35 46.45-35 61.75 0 55.45 0 43.25-29.05 31.1 0 24.95 0ZM32.65-8.1L32.65-13.1 53.6-13.1 53.6-8.1 32.65-8.1ZM60.75 5.9L76.59-40.85 81.5-40.85 65.64 5.9 60.75 5.9ZM101.49-14.1L80.09-4.85 80.09-9.05 97.64-16.5 80.09-24 80.09-28.2 101.49-18.9 101.49-14.1Z" fill="#ffdc00" data-fill-palette-color="primary"></path></g></svg></g></svg></g></svg></g></svg></g></svg></g><defs></defs></svg><rect width="395.52" height="185.36902255639097" fill="none" stroke="none" visibility="hidden"></rect></g></svg></g></svg>