<svg xmlns="http://www.w3.org/2000/svg" version="1.1" xmlns:xlink="http://www.w3.org/1999/xlink" xmlns:svgjs="http://svgjs.dev/svgjs" width="2000" height="550" viewBox="0 0 2000 550"><g transform="matrix(1,0,0,1,-1.2121212121212466,-0.513011567610647)"><svg viewBox="0 0 396 109" data-background-color="#ffffff" preserveAspectRatio="xMidYMid meet" height="550" width="2000" xmlns="http://www.w3.org/2000/svg" xmlns:xlink="http://www.w3.org/1999/xlink"><g id="tight-bounds" transform="matrix(1,0,0,1,0.2400000000000091,0.10166956521737802)"><svg viewBox="0 0 395.52 108.79666086956522" height="108.79666086956522" width="395.52"><g><svg viewBox="0 0 395.52 108.79666086956522" height="108.79666086956522" width="395.52"><g><svg viewBox="0 0 395.52 108.79666086956522" height="108.79666086956522" width="395.52"><g><svg viewBox="0 0 395.52 108.79666086956522" height="108.79666086956522" width="395.52"><g><svg viewBox="0 0 395.52 108.79666086956522" height="108.79666086956522" width="395.52"><g id="textblocktransform"><svg viewBox="0 0 395.52 108.79666086956522" height="108.79666086956522" width="395.52" id="textblock"><g><svg viewBox="0 0 395.52 108.79666086956522" height="108.79666086956522" width="395.52"><g transform="matrix(1,0,0,1,0,0)"><svg width="395.52" viewBox="5 -37.45 172.49 47.45" height="108.79666086956522" data-palette-color="#a855f7"><path d="M22.6-5L5-15 22.6-25 22.75-22.4 9.05-14.95Q13.65-12.55 22.75-7.65L22.75-7.65 22.6-5ZM77.9 0L67.8 0 67.8-2.75 70.84-2.75 68.55-9.25 53.15-9.25 50.9-2.75 54.5-2.75 54.5 0 44.4 0 44.4-2.75 47.7-2.75 59.35-35 62.4-35 74.45-2.75 77.9-2.75 77.9 0ZM67.65-11.75L60.7-31.2 54-11.75 67.65-11.75ZM83.74-32.25L80.69-32.25 80.69-35 92.74-35Q97.89-35 100.69-32.75 103.49-30.5 103.49-26.05L103.49-26.05Q103.49-23.1 101.42-19.93 99.34-16.75 97.34-15.6L97.34-15.6 105.24-2.75 108.79-2.75 108.79 0 103.29 0 94.39-14.35 87.14-14.35 87.14-2.75 90.79-2.75 90.79 0 80.69 0 80.69-2.75 83.74-2.75 83.74-32.25ZM92.49-32.25L92.49-32.25 87.14-32.25 87.14-17.1 95.39-17.1Q100.09-21.4 100.09-25.75L100.09-25.75Q100.09-28.95 98.14-30.6 96.19-32.25 92.49-32.25ZM130.34 10L146.24-37.45 149.24-37.45 133.34 10 130.34 10ZM177.49-15L159.89-5 159.74-7.65Q168.84-12.55 173.39-14.95L173.39-14.95 159.74-22.4 159.89-25 177.49-15Z" opacity="1" transform="matrix(1,0,0,1,0,0)" fill="#a855f7" class="wordmark-text-0" data-fill-palette-color="primary" id="text-0"></path></svg></g></svg></g></svg></g></svg></g><g></g></svg></g></svg></g></svg></g><defs></defs></svg><rect width="395.52" height="108.79666086956522" fill="none" stroke="none" visibility="hidden"></rect></g></svg></g></svg>